# xmcd CD database file
# Copyright (C) 1993-1998 Ti Kan
#
# Track frame offsets:
# 150
# 16030
# 38270
# 82277
# 103447
# 139492
# 180120
# 208330
# 236617
# 271550
#
# Disc length: 4271 seconds
# Revision: 0
# Processed by: cddbd v1.4b41PL1 Copyright (c) Steve Scherf et al.
# Submitted via: CDSpectrumPro v3.2.328
#
DISCID=8010ad0a
DTITLE=MS. Ruby Wilson and The King B's - Caught In The Act - Live At BB King'
DTITLE=s Blues Club
DYEAR=1900
DGENRE=
TTITLE0=Drink Muddy Water
TTITLE1=Dock of the Bay
TTITLE2=Ain't no Sunchine When He's Gone
TTITLE3=Dr. Feelgood
TTITLE4=Members Only
TTITLE5=Neither One of Us
TTITLE6=Wall To Wall
TTITLE7=Recess In Heaven
TTITLE8=I've Been Loving You
TTITLE9=Move To Soon
EXTD=Live At BB King's Blues Club - The Queen of Beale St. (Memphis TN)
EXTT0=
EXTT1=
EXTT2=
EXTT3=
EXTT4=
EXTT5=
EXTT6=
EXTT7=
EXTT8=
EXTT9=
PLAYORDER=
